<?xml version="1.0" encoding="utf-8"?>
<svg version="1.1" xmlns:xlink="http://www.w3.org/1999/xlink" width="18px" height="18px" xmlns="http://www.w3.org/2000/svg">
  <g transform="matrix(1 0 0 1 -690 -179 )">
    <path d="M 9.99000000000001 9  C 9.99000000000001 8.45550000000003  9.54899999999998 8.00999999999999  9 8.00999999999999  C 8.45550000000003 8.00999999999999  8.00999999999999 8.45550000000003  8.00999999999999 9  C 8.00999999999999 9.54449999999997  8.45550000000003 9.99000000000001  9 9.99000000000001  C 9.54899999999998 9.99000000000001  9.99000000000001 9.54449999999997  9.99000000000001 9  Z M 18 9  C 18 4.02749999999998  13.9725 0  9 0  C 4.02749999999998 0  0 4.02749999999998  0 9  C 0 13.968  4.02749999999998 18  9 18  C 13.9725 18  18 13.968  18 9  Z M 14.4 3.59999999999999  L 10.971 10.971  L 3.59999999999997 14.4  L 7.029 7.029  L 14.4 3.59999999999999  Z " fill-rule="nonzero" fill="#ffffff" stroke="none" transform="matrix(1 0 0 1 690 179 )" />
  </g>
</svg>