<?xml version="1.0" encoding="utf-8"?>
<svg version="1.1" xmlns:xlink="http://www.w3.org/1999/xlink" width="18px" height="23px" xmlns="http://www.w3.org/2000/svg">
  <g transform="matrix(1 0 0 1 -549 -699 )">
    <path d="M 8.03250000000003 2.25  L 8.03362500000003 2.25  C 6.25387499999999 2.25  5.34825000000001 2.44012499999997  4.51462500000002 2.885625  C 3.81940090602245 3.25141824370382  3.25141824370382 3.81940090602245  2.885625 4.51462500000002  C 2.44012499999997 5.34712500000001  2.25 6.25387499999999  2.25 8.03250000000003  L 2.25 14.46525  C 2.25 16.245  2.44012499999997 17.150625  2.885625 17.98425  C 3.26475000000005 18.693  3.80587500000001 19.2341249999999  4.51462500000002 19.61325  C 5.34712500000001 20.05875  6.25387499999999 20.248875  8.03362500000003 20.248875  L 9.96637499999997 20.248875  C 11.746125 20.248875  12.65175 20.05875  13.485375 19.61325  C 14.1805990939775 19.2474567562962  14.7485817562962 18.6794740939775  15.114375 17.98425  C 15.559875 17.15175  15.75 16.245  15.75 14.46525  L 15.75 8.03250000000003  C 15.75 6.25274999999999  15.559875 5.34712500000001  15.114375 4.51350000000002  C 14.7485817562962 3.81827590602245  14.1805990939775 3.25029324370382  13.485375 2.8845  C 12.652875 2.44012499999997  11.746125 2.25  9.96749999999997 2.25  L 8.03250000000003 2.25  Z M 3.45375000000001 0.901124999999979  C 4.55287499999997 0.312750000000051  5.767875 0  8.03362500000003 0  L 9.96637499999997 0  C 12.232125 0  13.447125 0.312750000000051  14.547375 0.901124999999979  C 15.6344715219379 1.47654996858  16.52345003142 2.36552847806206  17.098875 3.45262500000001  C 17.6872499999999 4.55287499999997  18 5.767875  18 8.03362500000003  L 18 14.466375  C 18 16.732125  17.6872499999999 17.947125  17.098875 19.047375  C 16.52345003142 20.1344715219379  15.6344715219379 21.02345003142  14.547375 21.598875  C 13.447125 22.1872499999999  12.232125 22.5  9.96637499999997 22.5  L 8.03250000000003 22.5  C 5.76675 22.5  4.55174999999997 22.1872499999999  3.45150000000001 21.598875  C 2.36440347806206 21.02345003142  1.47542496858 20.1344715219379  0.899999999999977 19.047375  C 0.312750000000051 17.947125  0 16.732125  0 14.466375  L 0 8.03250000000003  C 0 5.76675  0.312750000000051 4.55174999999997  0.901124999999979 3.45150000000001  C 1.47702925811109 2.36465717065562  2.36639974125649 1.47607061918336  3.45375000000001 0.901124999999979  Z M 7.875 10.125  L 7.875 4.5  L 10.125 4.5  L 10.125 10.125  L 7.875 10.125  Z " fill-rule="nonzero" fill="#0000ff" stroke="none" fill-opacity="0.8" transform="matrix(1 0 0 1 549 699 )" />
  </g>
</svg>