<?xml version="1.0" encoding="utf-8"?>
<svg version="1.1" xmlns:xlink="http://www.w3.org/1999/xlink" width="16px" height="16px" xmlns="http://www.w3.org/2000/svg">
  <g transform="matrix(1 0 0 1 0 -2 )">
    <path d="M 0 6.85714285714289  C 0 3.072  3.07200000000012 0  6.85714285714289 0  C 10.6422857142857 0  13.7142857142858 3.072  13.7142857142858 6.85714285714289  C 13.7142857142858 10.6422857142857  10.6422857142857 13.7142857142857  6.85714285714289 13.7142857142857  C 3.07200000000012 13.7142857142857  0 10.6422857142857  0 6.85714285714289  Z M 1.52380952380963 6.85714285714289  C 1.52380952380963 9.80342857142858  3.91009523809521 12.1904761904762  6.85714285714289 12.1904761904762  C 9.80342857142841 12.1904761904762  12.1904761904761 9.80342857142858  12.1904761904761 6.85714285714289  C 12.1904761904761 3.91009523809521  9.80342857142841 1.52380952380952  6.85714285714289 1.52380952380952  C 3.91009523809521 1.52380952380952  1.52380952380963 3.91009523809521  1.52380952380963 6.85714285714289  Z M 12.2445714285714 13.3219047619048  L 13.3219047619048 12.2445714285714  L 15.4773333333333 14.3992380952381  L 14.3992380952382 15.4773333333333  L 12.2445714285714 13.3219047619048  Z " fill-rule="nonzero" fill="#ffffff" stroke="none" transform="matrix(1 0 0 1 0 2 )" />
  </g>
</svg>