<?xml version="1.0" encoding="utf-8"?>
<svg version="1.1" xmlns:xlink="http://www.w3.org/1999/xlink" width="18px" height="21px" xmlns="http://www.w3.org/2000/svg">
  <g transform="matrix(1 0 0 1 -549 -705 )">
    <path d="M 8.03250000000003 2.05434782608696  L 8.03362500000003 2.05434782608696  C 6.25387499999999 2.05434782608696  5.34825000000001 2.22794021739127  4.51462500000002 2.63470108695653  C 3.81940090602245 2.96868622251219  3.25141824370382 3.48727908810746  2.885625 4.1220489130435  C 2.44012499999997 4.88215760869566  2.25 5.71005978260869  2.25 7.33402173913046  L 2.25 13.207402173913  C 2.25 14.8323913043478  2.44012499999997 15.6592663043478  2.885625 16.420402173913  C 3.26475000000005 17.0675217391304  3.80587500000001 17.5615923913043  4.51462500000002 17.90775  C 5.34712500000001 18.3145108695652  6.25387499999999 18.4881032608696  8.03362500000003 18.4881032608696  L 9.96637499999997 18.4881032608696  C 11.746125 18.4881032608696  12.65175 18.3145108695652  13.485375 17.90775  C 14.1805990939775 17.5737648644443  14.7485817562962 17.0551719988491  15.114375 16.420402173913  C 15.559875 15.6602934782609  15.75 14.8323913043478  15.75 13.207402173913  L 15.75 7.33402173913046  C 15.75 5.70903260869565  15.559875 4.88215760869566  15.114375 4.12102173913045  C 14.7485817562962 3.48625191419441  14.1805990939775 2.96765904859914  13.485375 2.63367391304348  C 12.652875 2.22794021739127  11.746125 2.05434782608696  9.96749999999997 2.05434782608696  L 8.03250000000003 2.05434782608696  Z M 3.45375000000001 0.822766304347807  C 4.55287499999997 0.285554347826133  5.767875 0  8.03362500000003 0  L 9.96637499999997 0  C 12.232125 0  13.447125 0.285554347826133  14.547375 0.822766304347807  C 15.6344715219379 1.34815431913826  16.52345003142 2.15983034953492  17.098875 3.15239673913045  C 17.6872499999999 4.15697282608693  18 5.26632065217392  18 7.33504891304351  L 18 13.2084293478261  C 18 15.2771576086956  17.6872499999999 16.3865054347826  17.098875 17.3910815217391  C 16.52345003142 18.3836479113346  15.6344715219379 19.1953239417313  14.547375 19.7207119565218  C 13.447125 20.2579239130434  12.232125 20.5434782608696  9.96637499999997 20.5434782608696  L 8.03250000000003 20.5434782608696  C 5.76675 20.5434782608696  4.55174999999997 20.2579239130434  3.45150000000001 19.7207119565218  C 2.36440347806206 19.1953239417313  1.47542496858 18.3836479113346  0.899999999999977 17.3910815217391  C 0.312750000000051 16.3865054347826  0 15.2771576086956  0 13.2084293478261  L 0 7.33402173913046  C 0 5.26529347826087  0.312750000000051 4.15594565217389  0.901124999999979 3.1513695652174  C 1.47702925811109 2.15903480798991  2.36639974125649 1.34771665229785  3.45375000000001 0.822766304347807  Z M 7.875 9.2445652173913  L 7.875 4.10869565217391  L 10.125 4.10869565217391  L 10.125 9.2445652173913  L 7.875 9.2445652173913  Z " fill-rule="nonzero" fill="#0000ff" stroke="none" fill-opacity="0.8" transform="matrix(1 0 0 1 549 705 )" />
  </g>
</svg>