<?xml version="1.0" encoding="utf-8"?>
<svg version="1.1" xmlns:xlink="http://www.w3.org/1999/xlink" width="16px" height="13px" xmlns="http://www.w3.org/2000/svg">
  <g transform="matrix(1 0 0 1 -107 -131 )">
    <path d="M 16 1.59999999999999  C 16 0.716000000000008  15.284 0  14.4 0  L 1.60000000000002 0  C 0.716000000000008 0  0.0080000000000382 0.716000000000008  0.0080000000000382 1.59999999999999  L 0 11.2  C 0 12.084  0.716000000000008 12.8  1.60000000000002 12.8  L 14.4 12.8  C 15.284 12.8  16 12.084  16 11.2  L 16 1.59999999999999  Z M 14.4 1.59999999999999  L 14.4 3.19999999999999  L 8 7.20000000000002  L 1.60000000000002 3.19999999999999  L 1.60000000000002 1.59999999999999  L 8 5.59999999999999  L 14.4 1.59999999999999  Z " fill-rule="nonzero" fill="#ffffff" stroke="none" transform="matrix(1 0 0 1 107 131 )" />
  </g>
</svg>