<?xml version="1.0" encoding="utf-8"?>
<svg version="1.1" xmlns:xlink="http://www.w3.org/1999/xlink" width="18px" height="18px" xmlns="http://www.w3.org/2000/svg">
  <g transform="matrix(1 0 0 1 -127 -97 )">
    <path d="M 10 8  L 10 6.00000000000001  L 8 6.00000000000001  L 8 8  L 10 8  Z M 14 8  L 14 6.00000000000001  L 12 6.00000000000001  L 12 8  L 14 8  Z M 18 13.5  C 18 12.945  17.555 12.5  17 12.5  C 15.755 12.5  14.555 12.3  13.43 11.93  C 13.085 11.82  12.69 11.9  12.415 12.175  L 10.215 14.38  C 7.38 12.94  5.06999999999999 10.625  3.625 7.79499999999999  L 5.82499999999999 5.59  C 6.10000000000002 5.31499999999998  6.18000000000001 4.92  6.06999999999999 4.57499999999999  C 5.69999999999999 3.44999999999999  5.5 2.24500000000002  5.5 1  C 5.5 0.444999999999993  5.05500000000001 0  4.5 0  L 1 0  C 0.444999999999993 0  0 0.444999999999993  0 1  C 0 10.39  7.61000000000001 18  17 18  C 17.555 18  18 17.555  18 17  L 18 13.5  Z M 18 6.00000000000001  L 16 6.00000000000001  L 16 8  L 18 8  L 18 6.00000000000001  Z " fill-rule="nonzero" fill="#ffffff" stroke="none" transform="matrix(1 0 0 1 127 97 )" />
  </g>
</svg>