<?xml version="1.0" encoding="utf-8"?>
<svg version="1.1" xmlns:xlink="http://www.w3.org/1999/xlink" width="16px" height="16px" xmlns="http://www.w3.org/2000/svg">
  <g transform="matrix(1 0 0 1 -328 -84 )">
    <path d="M 0 6.85714285714286  C 0 3.07200000000003  3.072 0  6.85714285714278 0  C 10.6422857142857 0  13.7142857142857 3.07200000000003  13.7142857142857 6.85714285714286  C 13.7142857142857 10.6422857142857  10.6422857142857 13.7142857142857  6.85714285714278 13.7142857142857  C 3.072 13.7142857142857  0 10.6422857142857  0 6.85714285714286  Z M 1.52380952380952 6.85714285714286  C 1.52380952380952 9.80342857142861  3.91009523809532 12.1904761904762  6.85714285714278 12.1904761904762  C 9.80342857142853 12.1904761904762  12.1904761904763 9.80342857142861  12.1904761904763 6.85714285714286  C 12.1904761904763 3.91009523809524  9.80342857142853 1.52380952380955  6.85714285714278 1.52380952380955  C 3.91009523809532 1.52380952380955  1.52380952380952 3.91009523809524  1.52380952380952 6.85714285714286  Z M 12.2445714285715 13.3219047619048  L 13.3219047619048 12.2445714285714  L 15.4773333333334 14.3992380952381  L 14.3992380952381 15.4773333333333  L 12.2445714285715 13.3219047619048  Z " fill-rule="nonzero" fill="#333333" stroke="none" transform="matrix(1 0 0 1 328 84 )" />
  </g>
</svg>