<?xml version="1.0" encoding="utf-8"?>
<svg version="1.1" xmlns:xlink="http://www.w3.org/1999/xlink" width="16px" height="12px" xmlns="http://www.w3.org/2000/svg">
  <g transform="matrix(1 0 0 1 -319 -17 )">
    <path d="M 16 3.63636363636365  C 11.5818181818182 -0.781818181818181  4.41818181818184 -0.781818181818181  0 3.63636363636365  L 1.45454545454544 5.09090909090907  C 5.0690909090909 1.4763636363636  10.9309090909091 1.4763636363636  14.5454545454546 5.09090909090907  L 16 3.63636363636365  Z M 10.1818181818181 9.45454545454544  C 8.97818181818184 8.25090909090912  7.02181818181816 8.25090909090912  5.81818181818187 9.45454545454544  L 8 11.6363636363637  L 10.1818181818181 9.45454545454544  Z M 13.0909090909091 6.54545454545459  C 10.28 3.73454545454544  5.71999999999997 3.73454545454544  2.90909090909088 6.54545454545459  L 4.36363636363637 8  C 6.37090909090909 5.99272727272728  9.62909090909091 5.99272727272728  11.6363636363636 8  L 13.0909090909091 6.54545454545459  Z " fill-rule="nonzero" fill="#000000" stroke="none" transform="matrix(1 0 0 1 319 17 )" />
  </g>
</svg>