<?xml version="1.0" encoding="utf-8"?>
<svg version="1.1" xmlns:xlink="http://www.w3.org/1999/xlink" width="22px" height="13px" xmlns="http://www.w3.org/2000/svg">
  <g transform="matrix(1 0 0 1 -295 -16 )">
    <path d="M 3.03236607142861 9.71752604166664  L 3.14285714285711 10.0008333333333  L 3.14285714285711 12.3658333333333  L 3.03236607142861 12.649140625  L 2.75 12.76  L 0.39285714285711 12.76  L 0.110491071428612 12.649140625  L 0 12.3658333333333  L 0 10.0008333333333  L 0.110491071428612 9.71752604166664  L 0.39285714285711 9.60666666666665  L 2.75 9.60666666666665  L 3.03236607142861 9.71752604166664  Z M 7.74665178571428 8.14085937499999  L 7.85714285714289 8.42416666666665  L 7.85714285714289 12.3658333333333  L 7.74665178571428 12.649140625  L 7.46428571428572 12.76  L 5.10714285714289 12.76  L 4.82477678571428 12.649140625  L 4.71428571428572 12.3658333333333  L 4.71428571428572 8.42416666666665  L 4.82477678571428 8.14085937499999  L 5.10714285714289 8.02999999999997  L 7.46428571428572 8.02999999999997  L 7.74665178571428 8.14085937499999  Z M 12.4609375 4.98752604166665  L 12.5714285714286 5.27083333333334  L 12.5714285714286 12.3658333333333  L 12.4609375 12.649140625  L 12.1785714285714 12.76  L 9.82142857142861 12.76  L 9.5390625 12.649140625  L 9.42857142857139 12.3658333333333  L 9.42857142857139 5.27083333333334  L 9.5390625 4.98752604166665  L 9.82142857142861 4.87666666666664  L 12.1785714285714 4.87666666666664  L 12.4609375 4.98752604166665  Z M 17.1752232142857 0.257526041666637  L 17 0.540833333333353  L 17 12.3658333333333  L 17.1752232142857 12.649140625  L 16.8928571428571 12.76  L 14.5357142857143 12.76  L 14.2533482142857 12.649140625  L 14 12.3658333333333  L 14 0.540833333333353  L 14.2533482142857 0.257526041666637  L 14.5357142857143 0.146666666666647  L 16.8928571428571 0.146666666666647  L 17.1752232142857 0.257526041666637  Z M 19.25 12.76  L 22 12.3658333333333  L 19.25 12.76  Z " fill-rule="nonzero" fill="#000000" stroke="none" transform="matrix(1 0 0 1 295 16 )" />
  </g>
</svg>