<?xml version="1.0" encoding="utf-8"?>
<svg version="1.1" xmlns:xlink="http://www.w3.org/1999/xlink" width="12px" height="20px" xmlns="http://www.w3.org/2000/svg">
  <g transform="matrix(1 0 0 1 -342 -14 )">
    <path d="M 9.19033333333335 19.5011666666666  C 10.2823333333333 19.5011666666666  11.1666666666667 18.6063333333332  11 17.5073333333333  L 11 4.01833333333326  C 11.1666666666667 2.91699999999997  10.2811666666667 2.02449999999993  9.19033333333335 2.02449999999993  L 7.6655 2.02449999999993  L 7.6655 0.839166666666643  L 4.16666666666667 0.839166666666643  L 4.16666666666667 2.02449999999993  L 2.73166666666668 2.02449999999993  C 1.63966666666667 2.02449999999993  0.755333333333326 2.91816666666665  0.666666666666664 4.01833333333326  L 0.666666666666664 17.5073333333333  C 0.755333333333326 18.6063333333332  1.64083333333334 19.5011666666666  2.73166666666668 19.5011666666666  L 9.19033333333335 19.5011666666666  Z M 3 3.16666666666663  L 8.83333333333334 3.16666666666663  C 9.42366666666667 3.16666666666663  10 3.72199999999998  10 4.33333333333326  L 10 17.1666666666666  C 10 17.7791666666666  9.42366666666667 18.3333333333333  8.83333333333334 18.3333333333333  L 3 18.3333333333333  C 2.40966666666667 18.3333333333333  1.8205 17.7791666666666  2 17.1666666666666  L 2 4.33333333333326  C 1.8205 3.7231666666666  2.40966666666667 3.16666666666663  3 3.16666666666663  Z M 8.83333333333334 16.5623333333333  L 8.83333333333334 5.00999999999993  C 8.83333333333334 4.68449999999996  8.48683333333334 4.33333333333326  8.187 4.33333333333326  L 3.62299999999999 4.33333333333326  C 3.32549999999999 4.33333333333326  3 4.68449999999996  3 5.00999999999993  L 3 16.5623333333333  C 3 16.8808333333333  3.32433333333332 17.1421666666666  3.62416666666666 17.1421666666666  L 8.18816666666667 17.1421666666666  C 8.4845 17.1421666666666  8.83333333333334 16.8808333333333  8.83333333333334 16.5623333333333  Z " fill-rule="nonzero" fill="#000000" stroke="none" transform="matrix(1 0 0 1 342 14 )" />
  </g>
</svg>