<?xml version="1.0" encoding="utf-8"?>
<svg version="1.1" xmlns:xlink="http://www.w3.org/1999/xlink" width="32px" height="26px" xmlns="http://www.w3.org/2000/svg">
  <g transform="matrix(1 0 0 1 -442 -239 )">
    <path d="M 32 3.19999999999999  C 32 1.43200000000002  30.568 0  28.8 0  L 3.19999999999999 0  C 1.43200000000002 0  0.0160000000000196 1.43200000000002  0 3.19999999999999  L 0 22.4  C 0 24.168  1.43200000000002 25.6  3.19999999999999 25.6  L 28.8 25.6  C 30.568 25.6  32 24.168  32 22.4  L 32 3.19999999999999  Z M 28.8 3.19999999999999  L 28.8 6.39999999999998  L 16 14.4  L 3.19999999999999 6.39999999999998  L 3.19999999999999 3.19999999999999  L 16 11.2  L 28.8 3.19999999999999  Z " fill-rule="nonzero" fill="#0000ff" stroke="none" transform="matrix(1 0 0 1 442 239 )" />
  </g>
</svg>