<?xml version="1.0" encoding="utf-8"?>
<svg version="1.1" xmlns:xlink="http://www.w3.org/1999/xlink" width="32px" height="32px" xmlns="http://www.w3.org/2000/svg">
  <g transform="matrix(1 0 0 1 -821 -236 )">
    <path d="M 17.76 16  C 17.76 15.032  16.976 14.24  16 14.24  C 15.032 14.24  14.24 15.032  14.24 16  C 14.24 16.968  15.032 17.76  16 17.76  C 16.976 17.76  17.76 16.968  17.76 16  Z M 32 16  C 32 7.15999999999997  24.84 0  16 0  C 7.15999999999997 0  0 7.15999999999997  0 16  C 0 24.832  7.15999999999997 32  16 32  C 24.84 32  32 24.832  32 16  Z M 25.6 6.39999999999998  L 19.504 19.504  L 6.39999999999998 25.6  L 12.496 12.496  L 25.6 6.39999999999998  Z " fill-rule="nonzero" fill="#0000ff" stroke="none" transform="matrix(1 0 0 1 821 236 )" />
  </g>
</svg>