<?xml version="1.0" encoding="utf-8"?>
<svg version="1.1" xmlns:xlink="http://www.w3.org/1999/xlink" width="32px" height="32px" xmlns="http://www.w3.org/2000/svg">
  <g transform="matrix(1 0 0 1 -100 -236 )">
    <path d="M 17.7777777777778 14.2222222222222  L 17.7777777777778 10.6666666666667  L 14.2222222222222 10.6666666666667  L 14.2222222222222 14.2222222222222  L 17.7777777777778 14.2222222222222  Z M 24.8888888888889 14.2222222222222  L 24.8888888888889 10.6666666666667  L 21.3333333333333 10.6666666666667  L 21.3333333333333 14.2222222222222  L 24.8888888888889 14.2222222222222  Z M 32 24  C 32 23.0133333333333  31.2088888888889 22.2222222222222  30.2222222222222 22.2222222222222  C 28.0088888888889 22.2222222222222  25.8755555555556 21.8666666666667  23.8755555555556 21.2088888888889  C 23.2622222222222 21.0133333333333  22.56 21.1555555555556  22.0711111111111 21.6444444444444  L 18.16 25.5644444444445  C 13.12 23.0044444444445  9.01333333333334 18.8888888888889  6.44444444444444 13.8577777777778  L 10.3555555555556 9.9377777777778  C 10.8444444444444 9.44888888888886  10.9866666666667 8.74666666666667  10.7911111111111 8.13333333333333  C 10.1333333333333 6.13333333333333  9.77777777777778 3.99111111111114  9.77777777777778 1.77777777777777  C 9.77777777777778 0.791111111111093  8.98666666666666 0  8 0  L 1.77777777777778 0  C 0.791111111111114 0  0 0.791111111111093  0 1.77777777777777  C 0 18.4711111111111  13.5288888888889 32  30.2222222222222 32  C 31.2088888888889 32  32 31.2088888888889  32 30.2222222222222  L 32 24  Z M 32 10.6666666666667  L 28.4444444444444 10.6666666666667  L 28.4444444444444 14.2222222222222  L 32 14.2222222222222  L 32 10.6666666666667  Z " fill-rule="nonzero" fill="#0000ff" stroke="none" transform="matrix(1 0 0 1 100 236 )" />
  </g>
</svg>