<?xml version="1.0" encoding="utf-8"?>
<svg version="1.1" xmlns:xlink="http://www.w3.org/1999/xlink" width="24px" height="24px" xmlns="http://www.w3.org/2000/svg">
  <g transform="matrix(1 0 0 1 -20 -20 )">
    <path d="M 24 12  C 24 18.6276  18.6276 24  12 24  C 5.3724 24  0 18.6276  0 12  C 0 5.37240000000001  5.3724 0  12 0  C 18.6276 0  24 5.37240000000001  24 12  Z M 12 21.6  C 17.3019335983756 21.6  21.6 17.3019335983756  21.6 12  C 21.6 6.69806640162438  17.3019335983756 2.40000000000001  12 2.40000000000001  C 6.69806640162438 2.40000000000001  2.4 6.69806640162438  2.4 12  C 2.4 17.3019335983756  6.69806640162438 21.6  12 21.6  Z M 19.2888 8.3148  L 10.8036 16.8  L 5.712 11.7084  L 7.4088 10.0116  L 10.8036 13.4064  L 17.5908 6.618  L 19.2888 8.3148  Z " fill-rule="nonzero" fill="#28d094" stroke="none" transform="matrix(1 0 0 1 20 20 )" />
  </g>
</svg>