<?xml version="1.0" encoding="utf-8"?>
<svg version="1.1" xmlns:xlink="http://www.w3.org/1999/xlink" width="25px" height="21px" xmlns="http://www.w3.org/2000/svg">
  <g transform="matrix(1 0 0 1 -178 -132 )">
    <path d="M 12.5 21  C 6.37272727272727 21  1.27500000000001 16.4733333333333  0.205681818181802 10.5  C 1.27386363636364 4.52666666666667  6.37272727272727 0  12.5 0  C 18.6272727272727 0  23.725 4.52666666666667  24.7943181818182 10.5  C 23.7261363636364 16.4733333333333  18.6272727272727 21  12.5 21  Z M 12.5 16.3333333333333  C 15.6379815331295 16.3333333333333  18.1818181818182 13.7216610406796  18.1818181818182 10.5  C 18.1818181818182 7.27833895932037  15.6379815331295 4.66666666666669  12.5 4.66666666666669  C 9.3620184668705 4.66666666666669  6.81818181818181 7.27833895932037  6.81818181818181 10.5  C 6.81818181818181 13.7216610406796  9.3620184668705 16.3333333333333  12.5 16.3333333333333  Z M 12.5 14  C 10.6172110801223 14  9.09090909090907 12.4329966244078  9.09090909090907 10.5  C 9.09090909090907 8.56700337559224  10.6172110801223 7  12.5 7  C 14.3827889198777 7  15.9090909090909 8.56700337559224  15.9090909090909 10.5  C 15.9090909090909 12.4329966244078  14.3827889198777 14  12.5 14  Z " fill-rule="nonzero" fill="#ffffff" stroke="none" transform="matrix(1 0 0 1 178 132 )" />
  </g>
</svg>