<?xml version="1.0" encoding="utf-8"?>
<svg version="1.1" xmlns:xlink="http://www.w3.org/1999/xlink" width="17px" height="21px" xmlns="http://www.w3.org/2000/svg">
  <g transform="matrix(1 0 0 1 -306 -32 )">
    <path d="M 15.2535833333333 12.31825  C 15.0654384155164 11.7356519302427  14.8590871947108 11.1590913340363  14.6348333333333 10.5894166666667  L 13.8006666666667 8.53058333333333  C 13.8006666666667 8.50675  13.8116666666667 8.10158333333333  13.8116666666667 7.89258333333333  C 13.8116666666667 4.37166666666667  12.1314166666667 0.833333333333333  8 0.833333333333333  C 3.86858333333333 0.833333333333333  2.18833333333333 4.37166666666667  2.18833333333333 7.89166666666667  C 2.18833333333333 8.10158333333333  2.19841666666667 8.50675  2.19933333333333 8.53058333333333  L 1.36516666666667 10.5894166666667  C 1.13783333333333 11.1788333333333  0.911416666666666 11.7920833333333  0.746416666666666 12.31825  C -0.0419166666666668 14.8271666666667  0.213833333333333 15.86575  0.408166666666666 15.8886666666667  C 0.82525 15.9381666666667  2.03158333333333 14.0003333333333  2.03158333333333 14.0003333333333  C 2.03158333333333 15.1223333333333  2.6155 16.5871666666667  3.87958333333333 17.645  C 3.4075 17.7889166666667  2.82816666666667 18.01075  2.45508333333333 18.2820833333333  C 2.1205 18.5268333333333  2.16266666666667 18.7770833333333  2.22316666666667 18.8779166666667  C 2.48808333333333 19.3188333333333  6.76525 19.1593333333333  8.00091666666667 19.0218333333333  C 9.23566666666667 19.1593333333333  13.51375 19.3188333333333  13.77775 18.877  C 13.83825 18.7761666666667  13.8804166666667 18.5268333333333  13.5458333333333 18.2820833333333  C 13.17275 18.01075  12.5934166666667 17.7889166666667  12.1204166666667 17.6440833333333  C 13.3845 16.5871666666667  13.9684166666667 15.1223333333333  13.9684166666667 13.9994166666667  C 13.9684166666667 13.9994166666667  15.17475 15.9381666666667  15.5918333333333 15.88775  C 15.7861666666667 15.8648333333333  16.041 14.8271666666667  15.2526666666667 12.31825  Z " fill-rule="nonzero" fill="#13b7f5" stroke="none" transform="matrix(1 0 0 1 306 32 )" />
  </g>
</svg>