<?xml version="1.0" encoding="utf-8"?>
<svg version="1.1" xmlns:xlink="http://www.w3.org/1999/xlink" width="19px" height="15px" xmlns="http://www.w3.org/2000/svg">
  <g transform="matrix(1 0 0 1 -386 -34 )">
    <path d="M 14.402 8.1775  C 14.402 8.59416666666667  14.7474545454545 8.92583333333334  15.1775454545455 8.92583333333334  C 15.6035340923392 8.92044781773407  15.9475095565608 8.58854166804658  15.9530909090909 8.1775  C 15.9530909090909 7.7625  15.6085 7.42916666666667  15.1775454545455 7.42916666666667  C 14.7465909090909 7.42916666666667  14.402 7.7625  14.402 8.1775  Z M 10.5804090909091 8.1775  C 10.5804090909091 8.59416666666667  10.925 8.92583333333334  11.3559545454545 8.92583333333334  C 11.7819431832482 8.92044781773407  12.1259186474699 8.58854166804657  12.1315 8.1775  C 12.1315 7.7625  11.7860454545454 7.42916666666667  11.3559545454545 7.42916666666667  C 10.9241363636364 7.42916666666667  10.5804090909091 7.7625  10.5804090909091 8.1775  Z M 17.0274545454545 13.1258333333333  C 16.9139310240553 13.1866964572391  16.8539545298566 13.3111886703098  16.8789090909091 13.4341666666667  C 16.8789090909091 13.4741666666667  16.8789090909091 13.515  16.9005 13.5566666666667  C 16.9851363636364 13.9041666666667  17.1544090909091 14.4575  17.1544090909091 14.4783333333333  C 17.1544090909091 14.5391666666667  17.176 14.58  17.176 14.6216666666667  C 17.1760000000102 14.7229207647515  17.090934102478 14.8050018939492  16.9860000000101 14.8050018939492  C 16.9419545454546 14.805  16.9212272727273 14.785  16.8789090909091 14.765  L 15.6275 14.0683333333333  C 15.536138154791 14.01979747053  15.4345628935734 13.9918756703483  15.3304090909091 13.9866666666667  C 15.2673636363637 13.9866666666667  15.2034545454545 13.9866666666667  15.1611363636363 14.0066666666667  C 14.5669545454546 14.1708333333333  13.9520454545454 14.2525  13.2948181818182 14.2525  C 10.1339090909091 14.2525  7.58877272727273 12.205  7.58877272727273 9.66500000000001  C 7.58877272727273 7.12583333333334  10.1339090909091 5.07750000000001  13.2948181818182 5.07750000000001  C 16.4548636363637 5.07750000000001  19 7.12583333333335  19 9.66500000000001  C 19 11.0375  18.2365454545454 12.2866666666667  17.0274545454545 13.1266666666667  Z M 13.5357727272727 4.24916666666667  C 13.4551935703009 4.24658167442009  13.3745779768242 4.24519262127433  13.2939545454545 4.245  C 9.68913636363635 4.245  6.72513636363635 6.62833333333333  6.72513636363635 9.66583333333333  C 6.72513636363635 10.1275  6.79422727272731 10.5741666666667  6.92204545454541 10.9991666666667  L 6.8451818181818 10.9991666666667  C 6.09058469608971 10.9918140126624  5.34026885396315 10.8887072242979  4.61354545454543 10.6925  C 4.54963636363635 10.6716666666667  4.48572727272727 10.6716666666667  4.4218181818182 10.6716666666667  C 4.29418489106519 10.6742829448365  4.16957835140568 10.7096629180085  4.06081818181815 10.7741666666667  L 2.55118181818182 11.6116666666667  C 2.50800000000004 11.6325  2.46568181818179 11.6533333333333  2.42336363636366 11.6533333333333  C 2.29516575366364 11.651981303234  2.19158301301201 11.5520330447105  2.19018181818183 11.4283333333333  C 2.19018181818183 11.3666666666667  2.21090909090907 11.3258333333333  2.23249999999996 11.2641666666667  C 2.25322727272726 11.2441666666667  2.44495454545455 10.5691666666667  2.55118181818182 10.1608333333333  C 2.55118181818182 10.1191666666667  2.57190909090906 10.0583333333333  2.57190909090906 10.0175  C 2.57143709347156 9.87268838351924  2.50082425083792 9.73641798545426  2.38104545454547 9.64916666666667  C 0.913727272727328 8.64666666666666  0 7.155  0 5.49833333333333  C 0 2.45416666666667  3.0831818181818 0  6.8659090909091 0  C 10.1175 0  12.8509090909091 1.8075  13.5357727272727 4.24833333333333  Z M 8.19850000000002 3.7425  C 8.19850000000002 4.22  8.58972727272726 4.5975  9.08459090909093 4.5975  C 9.57945454545455 4.5975  9.97068181818184 4.2  9.97068181818184 3.7425  C 9.97068181818184 3.265  9.57945454545455 2.8875  9.08459090909093 2.8875  C 8.58972727272726 2.8875  8.19850000000002 3.265  8.19850000000002 3.7425  Z M 3.65577272727273 3.7425  C 3.65577272727273 4.22  4.04786363636362 4.5975  4.54186363636359 4.5975  C 5.03672727272732 4.5975  5.4288181818182 4.2  5.4288181818182 3.7425  C 5.4288181818182 3.265  5.03672727272732 2.8875  4.54186363636359 2.8875  C 4.04786363636362 2.8875  3.65577272727273 3.265  3.65577272727273 3.7425  Z " fill-rule="nonzero" fill="#17d56c" stroke="none" transform="matrix(1 0 0 1 386 34 )" />
  </g>
</svg>