<?xml version="1.0" encoding="utf-8"?>
<svg version="1.1" xmlns:xlink="http://www.w3.org/1999/xlink" width="19px" height="19px" xmlns="http://www.w3.org/2000/svg">
  <g transform="matrix(1 0 0 1 -470 -31 )">
    <path d="M 14 18  L 0.666666666666667 18  C 0.666666666666667 18.3333333333333  0.666666666666667 18.3333333333333  0.666666666666667 18.3333333333333  C 0.666666666666667 14.651435001128  3.65143500112804 11.6666666666667  7.33333333333333 11.6666666666667  C 11.0152316655386 11.6666666666667  14 14.651435001128  14 18.3333333333333  C 14 18.3333333333333  14 18.3333333333333  14 18  Z M 12.3333333333333 5.83333333333333  C 12.3333333333333 8.59583333333333  10.0958333333333 10.8333333333333  7.33333333333333 10.8333333333333  C 4.57083333333333 10.8333333333333  2.33333333333333 8.59583333333333  2.33333333333333 5.83333333333333  C 2.33333333333333 3.07083333333333  4.57083333333333 0.833333333333333  7.33333333333333 0.833333333333333  C 10.0958333333333 0.833333333333333  12.3333333333333 3.07083333333333  12.3333333333333 5.83333333333333  Z M 15.6666666666667 18.3333333333333  C 15.6666666666667 16.1583333333333  14.8333333333333 14.1783333333333  13.4691666666667 12.6941666666667  C 16.0837052654927 13.3661527161261  17.9720204440903 15.6398589107115  18.1525 18.3333333333333  L 15.6666666666667 18.3333333333333  Z M 12.3341669655336 10.8340779923853  C 12.1499489618557 10.8340779923853  11.9659338155704 10.8218585050008  11.7833333333333 10.7975  C 13.1957628167696 9.53418686036243  14.0021501480355 7.72830365271153  14 5.83333333333333  C 14.0017719743276 4.69455427061316  13.710488622846 3.57447651609845  13.1541666666667 2.58083333333333  C 15.1003330794576 2.97189145254279  16.5003900810173 4.68159991546861  16.5 6.66666666666667  C 16.5000001992447 6.66719266410815  16.500000298867 6.66771866157272  16.500000298867 6.66824465905194  C 16.500000298867 8.96897087938872  14.6348931858704 10.8340779923853  12.3341669655336 10.8340779923853  Z " fill-rule="nonzero" fill="#13b7f5" stroke="none" transform="matrix(1 0 0 1 470 31 )" />
  </g>
</svg>