<?xml version="1.0" encoding="utf-8"?>
<svg version="1.1" xmlns:xlink="http://www.w3.org/1999/xlink" width="20px" height="19px" xmlns="http://www.w3.org/2000/svg">
  <g transform="matrix(1 0 0 1 -551 -33 )">
    <path d="M 3.734 15.738  C 3.734 15.492  3.642 15.308  3.457 15.185  C 1.358 13.677  0 11.4  0 8.908  C 0 4.323  4.475 0.6  10 0.6  C 15.525 0.6  20 4.323  20 8.908  C 20 13.492  15.525 17.215  10 17.215  C 8.89269434731558 17.2216250865948  7.79036929331416 17.0663158415169  6.728 16.754  C 6.636 16.724  6.512 16.724  6.42 16.724  C 6.235 16.724  6.05 16.784  5.895 16.877  L 3.704 18.138  C 3.6477503646307 18.1722512081103  3.58452950921236 18.1934387380343  3.519 18.2  C 3.33244938339128 18.1989217662519  3.18117879901488 18.0485410088425  3.179 17.862  C 3.179 17.769  3.209 17.708  3.241 17.615  C 3.271 17.585  3.549 16.569  3.704 15.954  C 3.704 15.892  3.734 15.8  3.734 15.738  Z M 5.382 6.226  C 5.382 6.943  5.949 7.511  6.667 7.511  C 7.384 7.511  7.952 6.943  7.952 6.226  C 7.952 5.508  7.384 4.94  6.667 4.94  C 5.949 4.94  5.382 5.508  5.382 6.226  Z M 12.048 6.226  C 12.048 6.943  12.616 7.511  13.333 7.511  C 14.051 7.511  14.618 6.943  14.618 6.226  C 14.618 5.508  14.051 4.94  13.333 4.94  C 12.616 4.94  12.048 5.508  12.048 6.226  Z " fill-rule="nonzero" fill="#17d56c" stroke="none" transform="matrix(1 0 0 1 551 33 )" />
  </g>
</svg>