<?xml version="1.0" encoding="utf-8"?>
<svg version="1.1" xmlns:xlink="http://www.w3.org/1999/xlink" width="24px" height="20px" xmlns="http://www.w3.org/2000/svg">
  <g transform="matrix(1 0 0 1 -20 -453 )">
    <path d="M 24 2.39999999999998  C 24 1.07400000000001  22.926 0  21.6 0  L 2.39999999999999 0  C 1.07400000000001 0  0.0120000000000147 1.07400000000001  0 2.39999999999998  L 0 16.8  C 0 18.126  1.07400000000001 19.2  2.39999999999999 19  L 21.6 19  C 22.926 19.2  24 18.126  24 16.8  L 24 2.39999999999998  Z M 21.6 2.39999999999998  L 21.6 4.79999999999995  L 12 10.8  L 2.39999999999999 4.79999999999995  L 2.39999999999999 2.39999999999998  L 12 8.39999999999998  L 21.6 2.39999999999998  Z " fill-rule="nonzero" fill="#0000ff" stroke="none" transform="matrix(1 0 0 1 20 453 )" />
  </g>
</svg>