<?xml version="1.0" encoding="utf-8"?>
<svg version="1.1" xmlns:xlink="http://www.w3.org/1999/xlink" width="24px" height="24px" xmlns="http://www.w3.org/2000/svg">
  <g transform="matrix(1 0 0 1 -20 -518 )">
    <path d="M 13.32 12  C 13.32 11.274  12.732 10.6800000000001  12 10.6800000000001  C 11.274 10.6800000000001  10.68 11.274  10.68 12  C 10.68 12.726  11.274 13.3199999999999  12 13.3199999999999  C 12.732 13.3199999999999  13.32 12.726  13.32 12  Z M 24 12  C 24 5.37  18.63 0  12 0  C 5.36999999999998 0  0 5.37  0 12  C 0 18.624  5.36999999999998 24  12 24  C 18.63 24  24 18.624  24 12  Z M 19.2 4.79999999999995  L 14.628 14.628  L 4.79999999999998 19.2  L 9.37199999999999 9.37199999999996  L 19.2 4.79999999999995  Z " fill-rule="nonzero" fill="#0000ff" stroke="none" transform="matrix(1 0 0 1 20 518 )" />
  </g>
</svg>