<?xml version="1.0" encoding="utf-8"?>
<svg version="1.1" xmlns:xlink="http://www.w3.org/1999/xlink" width="24px" height="24px" xmlns="http://www.w3.org/2000/svg">
  <g transform="matrix(1 0 0 1 -20 -388 )">
    <path d="M 13.3333333333333 10.6666666666667  L 13.3333333333333 8  L 10.6666666666667 8  L 10.6666666666667 10.6666666666667  L 13.3333333333333 10.6666666666667  Z M 18.6666666666667 10.6666666666667  L 18.6666666666667 8  L 16 8  L 16 10.6666666666667  L 18.6666666666667 10.6666666666667  Z M 24 18  C 24 17.26  23.4066666666667 16.6666666666667  22.6666666666667 16.6666666666667  C 21.0066666666667 16.6666666666667  19.4066666666667 16.4  17.9066666666667 15.9066666666667  C 17.4466666666667 15.76  16.92 15.8666666666667  16.5533333333333 16.2333333333333  L 13.62 19.1733333333333  C 9.84 17.2533333333333  6.76 14.1666666666667  4.83333333333333 10.3933333333333  L 7.76666666666667 7.45333333333338  C 8.13333333333333 7.08666666666664  8.24 6.56  8.09333333333333 6.10000000000002  C 7.6 4.60000000000002  7.33333333333334 2.99333333333334  7.33333333333334 1.33333333333331  C 7.33333333333334 0.593333333333305  6.74 0  6 0  L 1.33333333333334 0  C 0.593333333333334 0  0 0.593333333333305  0 1.33333333333331  C 0 13.8533333333334  10.1466666666667 24  22.6666666666667 24  C 23.4066666666667 24  24 23.4066666666667  24 22.6666666666667  L 24 18  Z M 24 8  L 21.3333333333333 8  L 21.3333333333333 10.6666666666667  L 24 10.6666666666667  L 24 8  Z " fill-rule="nonzero" fill="#0000ff" stroke="none" transform="matrix(1 0 0 1 20 388 )" />
  </g>
</svg>