<?xml version="1.0" encoding="utf-8"?>
<svg version="1.1" xmlns:xlink="http://www.w3.org/1999/xlink" width="16px" height="16px" xmlns="http://www.w3.org/2000/svg">
  <g transform="matrix(1 0 0 1 -592 -683 )">
    <path d="M 600 684  C 603.92 684  607 687.08  607 691  C 607 694.92  603.92 698  600 698  C 596.08 698  593 694.92  593 691  C 593 687.08  596.08 684  600 684  Z " fill-rule="nonzero" fill="#ffffff" stroke="none" />
    <path d="M 600 684  C 603.92 684  607 687.08  607 691  C 607 694.92  603.92 698  600 698  C 596.08 698  593 694.92  593 691  C 593 687.08  596.08 684  600 684  Z " stroke-width="2" stroke="#f2f2f2" fill="none" />
  </g>
</svg>